<svg xmlns="http://www.w3.org/2000/svg" viewBox="0 0 1024 1024" role="img"><path d="M533.49 713.155c42.699 0 69.17-17.828 69.17-45.46s-36.1-33.873-36.1-33.873h-71.31c-16.937 10.251-25.85 26.741-25.85 43.678s21.392 35.655 64.09 35.655z"/><circle cx="533.491" cy="435.452" r="51.855"/><path d="M960 0H64A64 64 0 000 64v896a64 64 0 0064 64h896a64 64 0 0064-64V64a64 64 0 00-64-64zM277.306 589.307c30.998 0 59.819-19.557 70.935-28.106a4.545 4.545 0 017.106 2.269c2.346 6.798 5.782 18.037 6.64 27.72.901 10.15-.826 20.942-2.05 26.906a18.82 18.82 0 01-4.826 9.254c-8.494 8.862-32.966 27.42-88.947 27.42C130.674 654.77 128 517.05 128 492.76c0-24.29 2.674-162.009 138.164-162.009 55.981 0 80.453 18.558 88.947 27.42a18.819 18.819 0 014.826 9.254c1.224 5.964 2.951 16.755 2.05 26.905-.858 9.684-4.294 20.923-6.64 27.72a4.545 4.545 0 01-7.106 2.27c-11.116-8.549-39.937-28.106-70.935-28.106-39.666 0-68.636 38.489-68.636 96.546s28.97 96.546 68.636 96.546zm577.245-1.391c14.262 0 31.94-6.686 31.94-6.686 12.678 0 12.678 60.912 0 60.912 0 0-15.004 9.953-50.66 9.953s-93.149-9.805-93.149-80.67v-167.58H648.04a91.468 91.468 0 015.41 31.004c0 57.491-53.707 104.097-119.958 104.097a135.099 135.099 0 01-49.495-9.247c-5.309 4.442-10.734 11.5-10.734 21.819 0 12.597 12.01 21.265 21.056 26.009 22.816-.17 63.193-.376 78.482.138 21.159.712 107.857 6.537 107.857 82.007s-70.298 104.59-147.166 104.59-139.86-19.017-139.86-77.254c0-35.939 25.344-58.068 44.754-69.748-13.255-7.24-32.274-23.09-32.274-54.451 0-29.507 20.61-49.158 36.562-59.95-18.158-18.242-29.141-42.012-29.141-68.01 0-57.49 53.707-104.097 119.959-104.097a135.838 135.838 0 0143.715 7.131h165.476v-68.636c0-12.677 76.659-12.677 76.659 0v68.636h67.15c12.678 0 12.678 65.963 0 65.963h-67.15v153.317c0 25.85 20.948 30.753 35.21 30.753z"/></svg>